<?xml version="1.0" standalone="no" ?>
<!DOCTYPE svg PUBLIC "-//W3C//DTD SVG 1.1//EN" "http://www.w3.org/Graphics/SVG/1.1/DTD/svg11.dtd">
<svg width="201px" height="85px" viewBox="0 0 201 85" style="background-color: #ffffff00" xmlns="http://www.w3.org/2000/svg" xmlns:xlink="http://www.w3.org/1999/xlink" version="1.1" >
<path stroke="none" fill="#000000" transform="matrix(0.05 0 0 0.05 -152 -254)" d="M 3540.79,5638.44 L 3546.77,5641.93 L 3546.74,5648.86 L 3303.58,5787.82 L 3291.61,5780.84 L 3540.79,5638.44 Z " />
<path stroke="none" fill="#000000" transform="matrix(0.05 0 0 0.05 -152 -254)" d="M 3291.61,5780.84 L 3303.58,5787.82 L 3302.34,6067.89 L 3290.31,6074.76 L 3291.61,5780.84 Z " />
<path stroke="none" fill="#000000" transform="matrix(0.05 0 0 0.05 -152 -254)" d="M 3343.12,5814.36 L 3355.12,5814.41 L 3354.11,6041.76 L 3342.11,6041.7 L 3343.12,5814.36 Z " />
<path stroke="none" fill="#000000" transform="matrix(0.05 0 0 0.05 -152 -254)" d="M 3290.31,6074.76 L 3302.34,6067.89 L 3544.27,6209 L 3544.24,6215.92 L 3538.22,6219.36 L 3290.31,6074.76 Z " />
<path stroke="none" fill="#000000" transform="matrix(0.05 0 0 0.05 -152 -254)" d="M 3550.22,6219.42 L 3544.24,6215.92 L 3544.27,6209 L 3787.43,6070.03 L 3793.42,6073.53 L 3794.07,6080.06 L 3550.22,6219.42 Z " />
<path stroke="none" fill="#000000" transform="matrix(0.05 0 0 0.05 -152 -254)" d="M 3799.44,6069.19 L 3793.42,6073.53 L 3787.43,6070.03 L 3788.67,5789.97 L 3794.69,5786.53 L 3800.67,5790.91 L 3799.44,6069.19 Z " />
<path stroke="none" fill="#000000" transform="matrix(0.05 0 0 0.05 -152 -254)" d="M 3747.89,6043.5 L 3735.89,6043.44 L 3736.89,5816.1 L 3748.89,5816.15 L 3747.89,6043.5 Z " />
<path stroke="none" fill="#000000" transform="matrix(0.05 0 0 0.05 -152 -254)" d="M 3795.4,5780 L 3794.69,5786.53 L 3788.67,5789.97 L 3546.74,5648.86 L 3546.77,5641.93 L 3552.79,5638.49 L 3795.4,5780 Z " />
<path stroke="none" fill="#000000" transform="matrix(0.05 0 0 0.05 -152 -254)" d="M 3794.07,6080.06 L 3793.42,6073.53 L 3799.44,6069.19 L 4063.71,6156.36 L 4068.24,6170.48 L 3794.07,6080.06 Z " />
<path stroke="none" fill="#000000" transform="matrix(0.05 0 0 0.05 -152 -254)" d="M 4068.24,6170.48 L 4063.71,6156.36 L 4228.28,5931.95 L 4235.69,5931.98 L 4238.73,5937.99 L 4068.24,6170.48 Z " />
<path stroke="none" fill="#000000" transform="matrix(0.05 0 0 0.05 -152 -254)" d="M 4051.35,6106.15 L 4041.67,6099.05 L 4167,5928.15 L 4176.68,5935.25 L 4051.35,6106.15 Z " />
<path stroke="none" fill="#000000" transform="matrix(0.05 0 0 0.05 -152 -254)" d="M 4238.78,5925.99 L 4235.69,5931.98 L 4228.28,5931.95 L 4065.71,5706.09 L 4070.35,5692 L 4238.78,5925.99 Z " />
<path stroke="none" fill="#000000" transform="matrix(0.05 0 0 0.05 -152 -254)" d="M 4070.35,5692 L 4065.71,5706.09 L 3800.67,5790.91 L 3794.69,5786.53 L 3795.4,5780 L 4070.35,5692 Z " />
<path stroke="none" fill="#000000" transform="matrix(0.05 0 0 0.05 -152 -254)" d="M 4238.73,5937.99 L 4235.69,5931.98 L 4238.78,5925.99 L 4519.25,5927.23 L 4522.69,5933.25 L 4519.2,5939.23 L 4238.73,5937.99 Z " />
<path stroke="none" fill="#000000" transform="matrix(0.05 0 0 0.05 -152 -254)" d="M 4530.7,5935.17 L 4522.69,5933.25 L 4540.74,5914.21 L 4700.81,5809.05 L 4704.37,5821.07 L 4530.7,5935.17 Z " />
<path stroke="none" fill="#000000" transform="matrix(0.05 0 0 0.05 -152 -254)" d="M 4704.37,5821.07 L 4700.81,5809.05 L 4919.68,5810.02 L 4916,5822 L 4704.37,5821.07 Z " />
<path stroke="none" fill="#000000" transform="matrix(0.05 0 0 0.05 -152 -254)" d="M 4916,5822 L 4919.68,5810.02 L 5078.81,5916.59 L 5096.69,5935.79 L 5088.66,5937.63 L 4916,5822 Z " />
<path stroke="none" fill="#000000" transform="matrix(0.05 0 0 0.05 -152 -254)" d="M 5100.18,5929.8 L 5096.69,5935.79 L 5078.81,5916.59 L 4950.8,5692.59 L 4957.78,5680.62 L 5100.18,5929.8 Z " />
<path stroke="none" fill="#000000" transform="matrix(0.05 0 0 0.05 -152 -254)" d="M 4957.78,5680.62 L 4950.8,5692.59 L 4670.73,5691.35 L 4663.85,5679.32 L 4957.78,5680.62 Z " />
<path stroke="none" fill="#000000" transform="matrix(0.05 0 0 0.05 -152 -254)" d="M 4663.85,5679.32 L 4670.73,5691.35 L 4540.74,5914.21 L 4522.69,5933.25 L 4519.25,5927.23 L 4663.85,5679.32 Z " />
<path stroke="none" fill="#000000" transform="matrix(0.05 0 0 0.05 -152 -254)" d="M 4519.2,5939.23 L 4522.69,5933.25 L 4530.7,5935.17 L 4668.58,6176.45 L 4661.6,6188.41 L 4519.2,5939.23 Z " />
<path stroke="none" fill="#000000" transform="matrix(0.05 0 0 0.05 -152 -254)" d="M 4955.53,6189.71 L 4948.65,6177.68 L 5088.66,5937.63 L 5096.69,5935.79 L 5100.12,5941.8 L 4955.53,6189.71 Z " />
<path stroke="none" fill="#000000" transform="matrix(0.05 0 0 0.05 -152 -254)" d="M 4661.6,6188.41 L 4668.58,6176.45 L 4948.65,6177.68 L 4955.53,6189.71 L 4661.6,6188.41 Z " />
<path stroke="none" fill="#000000" transform="matrix(0.05 0 0 0.05 -152 -254)" d="M 5100.12,5941.8 L 5096.69,5935.79 L 5100.18,5929.8 L 5380.65,5931.04 L 5383.68,5937.06 L 5380.6,5943.04 L 5100.12,5941.8 Z " />
<path stroke="none" fill="#000000" transform="matrix(0.05 0 0 0.05 -152 -254)" d="M 5380.6,5943.04 L 5383.68,5937.06 L 5391.1,5937.09 L 5553.67,6162.94 L 5549.03,6177.03 L 5380.6,5943.04 Z " />
<path stroke="none" fill="#000000" transform="matrix(0.05 0 0 0.05 -152 -254)" d="M 5442.67,5940.84 L 5452.41,5933.83 L 5576.22,6105.84 L 5566.48,6112.85 L 5442.67,5940.84 Z " />
<path stroke="none" fill="#000000" transform="matrix(0.05 0 0 0.05 -152 -254)" d="M 5549.03,6177.03 L 5553.67,6162.94 L 5818.71,6078.12 L 5824.69,6082.51 L 5824.66,6088.82 L 5549.03,6177.03 Z " />
<path stroke="none" fill="#000000" transform="matrix(0.05 0 0 0.05 -152 -254)" d="M 5830.71,6078.18 L 5824.69,6082.51 L 5818.71,6078.12 L 5819.94,5799.84 L 5825.96,5795.51 L 5831.94,5799.9 L 5830.71,6078.18 Z " />
<path stroke="none" fill="#000000" transform="matrix(0.05 0 0 0.05 -152 -254)" d="M 5779.2,6044.77 L 5767.2,6044.72 L 5768.14,5832.79 L 5780.14,5832.84 L 5779.2,6044.77 Z " />
<path stroke="none" fill="#000000" transform="matrix(0.05 0 0 0.05 -152 -254)" d="M 5825.99,5789.2 L 5825.96,5795.51 L 5819.94,5799.84 L 5555.66,5712.68 L 5551.14,5698.55 L 5825.99,5789.2 Z " />
<path stroke="none" fill="#000000" transform="matrix(0.05 0 0 0.05 -152 -254)" d="M 5551.14,5698.55 L 5555.66,5712.68 L 5391.1,5937.09 L 5383.68,5937.06 L 5380.65,5931.04 L 5551.14,5698.55 Z " />
<text x="0" y="0" stroke="none" fill="#000000" transform="matrix(0.05 0 0 0.05 149.528 58.2016)" font-style="normal" font-weight="normal" font-size="200px" font-family="Arial" >
S</text>
<text x="0" y="0" stroke="none" fill="#000000" transform="matrix(0.05 0 0 0.05 149.63 34.9831)" font-style="normal" font-weight="normal" font-size="200px" font-family="Arial" >
S</text>
<path stroke="none" fill="#000000" transform="matrix(0.05 0 0 0.05 -152 -254)" d="M 5824.66,6088.82 L 5824.69,6082.51 L 5830.71,6078.18 L 6009.01,6136.98 L 6005.25,6148.38 L 5824.66,6088.82 Z " />
<path stroke="none" fill="#000000" transform="matrix(0.05 0 0 0.05 -152 -254)" d="M 6163.63,6092.03 L 6153.95,6084.93 L 6259.55,5940.93 L 6266.97,5940.96 L 6270,5946.98 L 6163.63,6092.03 Z " />
<path stroke="none" fill="#000000" transform="matrix(0.05 0 0 0.05 -152 -254)" d="M 6270.05,5934.98 L 6266.97,5940.96 L 6259.55,5940.93 L 6157.23,5798.77 L 6166.97,5791.76 L 6270.05,5934.98 Z " />
<path stroke="none" fill="#000000" transform="matrix(0.05 0 0 0.05 -152 -254)" d="M 6004.12,5732.19 L 6007.78,5743.62 L 5831.94,5799.9 L 5825.96,5795.51 L 5825.99,5789.2 L 6004.12,5732.19 Z " />
<path stroke="none" fill="#000000" transform="matrix(0.05 0 0 0.05 -152 -254)" d="M 6270,5946.98 L 6266.97,5940.96 L 6270.05,5934.98 L 6550.94,5936.22 L 6553.97,5942.23 L 6550.88,5948.22 L 6270,5946.98 Z " />
<path stroke="none" fill="#000000" transform="matrix(0.05 0 0 0.05 -152 -254)" d="M 6293.49,5895.42 L 6293.55,5883.42 L 6527.9,5884.46 L 6527.85,5896.46 L 6293.49,5895.42 Z " />
<text x="0" y="0" stroke="none" fill="#000000" transform="matrix(0.05 0 0 0.05 180.747 58.3397)" font-style="normal" font-weight="normal" font-size="200px" font-family="Arial" >
S</text>
<text x="0" y="0" stroke="none" fill="#000000" transform="matrix(0.05 0 0 0.05 180.849 35.1211)" font-style="normal" font-weight="normal" font-size="200px" font-family="Arial" >
S</text>
<path stroke="none" fill="#000000" transform="matrix(0.05 0 0 0.05 -152 -254)" d="M 6550.88,5948.22 L 6553.97,5942.23 L 6561.38,5942.26 L 6664.49,6085.51 L 6654.75,6092.52 L 6550.88,5948.22 Z " />
<path stroke="none" fill="#000000" transform="matrix(0.05 0 0 0.05 -152 -254)" d="M 6811.45,6152.72 L 6807.79,6141.29 L 6989,6083.3 L 7000.96,6092.07 L 6811.45,6152.72 Z " />
<path stroke="none" fill="#000000" transform="matrix(0.05 0 0 0.05 -152 -254)" d="M 7000.96,6092.07 L 6989,6083.3 L 6990.23,5805.02 L 7002.26,5796.35 L 7000.96,6092.07 Z " />
<path stroke="none" fill="#000000" transform="matrix(0.05 0 0 0.05 -152 -254)" d="M 6949.48,6049.95 L 6937.48,6049.89 L 6938.42,5837.96 L 6950.42,5838.02 L 6949.48,6049.95 Z " />
<path stroke="none" fill="#000000" transform="matrix(0.05 0 0 0.05 -152 -254)" d="M 7002.26,5796.35 L 6990.23,5805.02 L 6814.36,5747.02 L 6818.12,5735.62 L 7002.26,5796.35 Z " />
<path stroke="none" fill="#000000" transform="matrix(0.05 0 0 0.05 -152 -254)" d="M 6655.35,5793.83 L 6665.03,5800.93 L 6561.38,5942.26 L 6553.97,5942.23 L 6550.94,5936.22 L 6655.35,5793.83 Z " />
<path stroke="none" fill="#000000" transform="matrix(0.05 0 0 0.05 -152 -254)" d="M 3538.22,6219.36 L 3544.24,6215.92 L 3550.22,6219.42 L 3548.98,6499.48 L 3542.97,6502.92 L 3536.98,6499.43 L 3538.22,6219.36 Z " />
<path stroke="none" fill="#000000" transform="matrix(0.05 0 0 0.05 -152 -254)" d="M 3589.76,6245.95 L 3601.76,6246.01 L 3600.76,6473.35 L 3588.76,6473.3 L 3589.76,6245.95 Z " />
<path stroke="none" fill="#000000" transform="matrix(0.05 0 0 0.05 -152 -254)" d="M 3552.79,5638.49 L 3546.77,5641.93 L 3540.79,5638.44 L 3542.03,5358.37 L 3548.04,5354.93 L 3554.03,5358.42 L 3552.79,5638.49 Z " />
<path stroke="none" fill="#000000" transform="matrix(0.05 0 0 0.05 -152 -254)" d="M 3604.57,5612.36 L 3592.57,5612.31 L 3593.57,5384.96 L 3605.57,5385.01 L 3604.57,5612.36 Z " />
<text x="0" y="0" stroke="none" fill="#000000" transform="matrix(0.05 0 0 0.05 34.2504 10.2082)" font-style="normal" font-weight="normal" font-size="200px" font-family="Arial" >
NC</text>
<path stroke="none" fill="#000000" transform="matrix(0.05 0 0 0.05 -152 -254)" d="M 3554.03,5358.42 L 3548.04,5354.93 L 3548.07,5348.01 L 3691.87,5265.83 L 3697.83,5276.25 L 3554.03,5358.42 Z " />
<text x="0" y="0" stroke="none" fill="#000000" transform="matrix(0.05 0 0 0.05 2.17401 10.0983)" font-style="normal" font-weight="normal" font-size="200px" font-family="Arial" >
CN</text>
<path stroke="none" fill="#000000" transform="matrix(0.05 0 0 0.05 -152 -254)" d="M 3548.07,5348.01 L 3548.04,5354.93 L 3542.03,5358.37 L 3397.22,5273.91 L 3403.27,5263.55 L 3548.07,5348.01 Z " />
<text x="0" y="0" stroke="none" fill="#000000" transform="matrix(0.05 0 0 0.05 1.85674 81.8476)" font-style="normal" font-weight="normal" font-size="200px" font-family="Arial" >
CN</text>
<path stroke="none" fill="#000000" transform="matrix(0.05 0 0 0.05 -152 -254)" d="M 3536.98,6499.43 L 3542.97,6502.92 L 3542.94,6509.85 L 3396.52,6593.52 L 3390.57,6583.1 L 3536.98,6499.43 Z " />
<text x="0" y="0" stroke="none" fill="#000000" transform="matrix(0.05 0 0 0.05 33.9331 81.9575)" font-style="normal" font-weight="normal" font-size="200px" font-family="Arial" >
NC</text>
<path stroke="none" fill="#000000" transform="matrix(0.05 0 0 0.05 -152 -254)" d="M 3542.94,6509.85 L 3542.97,6502.92 L 3548.98,6499.48 L 3692.4,6583.13 L 3686.35,6593.5 L 3542.94,6509.85 Z " />
</svg>
